PathFileType	4	(X/Y/Z)	C:\Users\Graham\Documents\MATLAB\MOtoNMS_v2_2\MyData\ElaboratedData\S4\17-05-18\staticElaborations\Static1\Static1\\Static1.trc
DataRate	CameraRate	NumFrames	NumMarkers	Units	OrigDataRate	DataStartFrame
100	100	9	38	mm	100	2
Frame#	Time	V_Sacral			R_ASIS			L_ASIS			R_Knee_Lat			R_Knee_Med			R_Thigh_Upper			R_Thigh_Front			R_Thigh_Rear			L_Knee_Lat			L_Knee_Med			L_Thigh_Upper			L_Thigh_Front			L_Thigh_Rear			R_Ankle_Lat			R_Ankle_Med			R_Shank_Upper			R_Shank_Front			R_Shank_Rear			L_Ankle_Lat			L_Ankle_Med			L_Shank_Upper			L_Shank_Front			L_Shank_Rear			R_Heel			R_MTP1			R_MTP5			L_Heel			L_MTP1			L_MTP5			Clavicle			R_Acromium			L_Acromium			LAJC			RAJC			LHJC			RHJC			LKJC			RKJC		
		X1	Y1	Z1	X2	Y2	Z2	X3	Y3	Z3	X4	Y4	Z4	X5	Y5	Z5	X6	Y6	Z6	X7	Y7	Z7	X8	Y8	Z8	X9	Y9	Z9	X10	Y10	Z10	X11	Y11	Z11	X12	Y12	Z12	X13	Y13	Z13	X14	Y14	Z14	X15	Y15	Z15	X16	Y16	Z16	X17	Y17	Z17	X18	Y18	Z18	X19	Y19	Z19	X20	Y20	Z20	X21	Y21	Z21	X22	Y22	Z22	X23	Y23	Z23	X24	Y24	Z24	X25	Y25	Z25	X26	Y26	Z26	X27	Y27	Z27	X28	Y28	Z28	X29	Y29	Z29	X30	Y30	Z30	X31	Y31	Z31	X32	Y32	Z32	X33	Y33	Z33	X34	Y34	Z34	X35	Y35	Z35	X36	Y36	Z36	X37	Y37	Z37	X38	Y38	Z38	

2	0.010000	-147.290130	1012.242732	19.145391	53.626216	983.788352	151.123326	72.664311	976.991931	-83.686846	-53.974564	506.635461	205.275732	-50.715464	494.204694	95.055820	79.078538	739.312754	142.034835	29.788757	633.485187	91.924432	31.118965	625.605411	176.450843	-63.387483	513.000335	-158.809704	-78.093197	486.320874	-39.895882	83.966812	758.271463	-70.247927	35.005313	645.166457	-33.132200	48.409313	640.641621	-109.262161	-155.823574	103.001094	223.616931	-132.922083	119.519535	131.152989	-34.893188	329.439704	191.119981	-90.712218	224.123819	145.237218	-92.155686	226.164393	226.738059	-147.211148	96.499584	-152.894481	-125.608630	120.376632	-61.316044	-44.064090	367.391121	-125.538197	-82.624442	252.251501	-85.530780	-78.030509	254.925404	-166.471530	-226.228319	57.073150	180.004435	4.984480	65.548944	165.573866	-9.184567	58.519459	238.693416	-220.414846	54.795081	-105.087720	8.421866	60.996590	-83.159084	-15.858398	55.466724	-171.490894	4.597343	1394.755047	15.716075	-84.207450	1446.410227	205.591805	-80.135134	1440.289267	-178.048240	-136.409889	108.438108	-107.105262	-144.372829	111.260315	177.384960	-2.483331	906.372730	-54.849113	-16.227860	911.279398	114.671795	-70.740340	499.660604	-99.352793	-52.345014	500.420078	150.165776	
3	0.020000	-147.230727	1012.251642	19.077422	53.641189	983.789579	151.085724	72.744006	976.981558	-83.708061	-53.986347	506.641829	205.247037	-50.700810	494.215001	95.027011	79.096970	739.313946	142.029825	29.791330	633.473054	91.900895	31.117714	625.607981	176.435529	-63.354982	512.991203	-158.824510	-78.089194	486.322182	-39.921407	84.026406	758.247387	-70.242296	34.886445	645.036425	-33.123576	48.463926	640.620586	-109.268567	-155.875298	103.030903	223.599521	-132.927076	119.518173	131.145345	-34.896784	329.448806	191.099882	-90.673868	224.153570	145.220649	-92.154718	226.180624	226.730262	-147.209397	96.501781	-152.898857	-125.606787	120.380519	-61.321021	-44.049553	367.389624	-125.553923	-82.607722	252.247362	-85.531370	-78.022053	254.924144	-166.482790	-226.223759	57.082937	179.998247	4.970387	65.504701	165.589953	-9.179362	58.523821	238.692554	-220.416012	54.798125	-105.089671	8.422067	61.002466	-83.166242	-15.861827	55.466515	-171.493803	4.679553	1394.760727	15.645014	-84.173106	1446.422187	205.499129	-80.039219	1440.306301	-178.121480	-136.408092	108.441150	-107.109939	-144.401187	111.274538	177.372433	-2.414314	906.371766	-54.890019	-16.205623	911.286827	114.619722	-70.722088	499.656693	-99.372958	-52.343578	500.428415	150.137024	
4	0.030000	-147.171913	1012.260158	19.010409	53.656239	983.790600	151.049164	72.823441	976.971156	-83.728505	-53.997535	506.647929	205.218796	-50.687458	494.223236	94.998151	79.114828	739.314887	142.025083	29.794658	633.461237	91.878521	31.115851	625.610217	176.420240	-63.322367	512.982065	-158.839236	-78.085333	486.323801	-39.946597	84.085381	758.223586	-70.236680	34.784975	644.920862	-33.116332	48.517865	640.599793	-109.274417	-155.922425	103.058730	223.582714	-132.931003	119.517236	131.137578	-34.899701	329.457368	191.080392	-90.617720	224.192692	145.201938	-92.153936	226.195982	226.722487	-147.207763	96.503913	-152.903221	-125.605466	120.384457	-61.326002	-44.035023	367.387904	-125.569073	-82.592194	252.243391	-85.532483	-78.013169	254.922803	-166.493891	-226.219859	57.092552	179.991929	4.956474	65.461577	165.604970	-9.174138	58.527836	238.691702	-220.417037	54.801112	-105.091529	8.421626	61.009868	-83.175719	-15.864915	55.466331	-171.496450	4.760647	1394.765696	15.575238	-84.137413	1446.434052	205.408233	-79.944224	1440.321467	-178.193595	-136.406614	108.444185	-107.114611	-144.426714	111.287983	177.360146	-2.345514	906.370571	-54.930052	-16.183358	911.293898	114.568702	-70.703850	499.652933	-99.392917	-52.342496	500.435583	150.108473	
5	0.040000	-147.113268	1012.268090	18.944485	53.671994	983.790981	151.014052	72.903362	976.960422	-83.748018	-54.007542	506.653486	205.191113	-50.675836	494.227906	94.968993	79.132081	739.315025	142.020594	29.799391	633.449602	91.857799	31.113257	625.611573	176.404749	-63.289335	512.972876	-158.854086	-78.081509	486.326032	-39.971182	84.143877	758.200068	-70.231183	34.715585	644.831364	-33.111834	48.570995	640.579284	-109.279450	-155.961098	103.082980	223.566978	-132.933275	119.516669	131.129638	-34.901386	329.465031	191.061810	-90.528289	224.249110	145.179355	-92.153371	226.209655	226.714646	-147.206253	96.506052	-152.907547	-125.604833	120.388511	-61.331109	-44.020401	367.385872	-125.583401	-82.578795	252.239757	-85.534860	-78.003326	254.921314	-166.504902	-226.217078	57.101899	179.985295	4.942034	65.418343	165.619021	-9.168915	58.531211	238.690808	-220.417768	54.804123	-105.093148	8.420359	61.018677	-83.187236	-15.867297	55.466119	-171.498636	4.840797	1394.769199	15.507344	-84.098292	1446.445735	205.319969	-79.849294	1440.333213	-178.264365	-136.405543	108.447281	-107.119328	-144.447186	111.299824	177.348308	-2.276323	906.368808	-54.969094	-16.160543	911.300178	114.519015	-70.685422	499.649454	-99.412634	-52.341689	500.440696	150.080053	
6	0.050000	-147.054454	1012.275292	18.879754	53.689044	983.790400	150.980586	72.984278	976.949108	-83.766595	-54.015914	506.658286	205.164068	-50.666091	494.228056	94.939332	79.148785	739.313863	142.016284	29.805880	633.437980	91.838985	31.110009	625.611594	176.388868	-63.255705	512.963609	-158.869209	-78.077626	486.329083	-39.994920	84.201999	758.176864	-70.225872	34.687756	644.775378	-33.110999	48.623200	640.559088	-109.283526	-155.989009	103.102676	223.552623	-132.933589	119.516332	131.121515	-34.901448	329.471554	191.044296	-90.396503	224.327092	145.151824	-92.152997	226.221045	226.706679	-147.204841	96.508277	-152.911787	-125.604912	120.392724	-61.336437	-44.005631	367.383500	-125.596747	-82.568155	252.236569	-85.539087	-77.992134	254.919623	-166.515878	-226.215705	57.110880	179.978242	4.926390	65.373672	165.632463	-9.163749	58.533781	238.689807	-220.418115	54.807235	-105.094400	8.418198	61.028418	-83.199995	-15.868706	55.465860	-171.500260	4.920209	1394.770672	15.441822	-84.054155	1446.457070	205.235017	-79.753492	1440.340524	-178.333702	-136.404877	108.450500	-107.124112	-144.461299	111.309504	177.337069	-2.206321	906.366207	-55.007107	-16.136696	911.305343	114.470827	-70.666666	499.646346	-99.432065	-52.341003	500.443171	150.051700	
7	0.060000	-146.995246	1012.281691	18.816308	53.707928	983.788689	150.948738	73.066361	976.937044	-83.784405	-54.022337	506.662206	205.137717	-50.658054	494.223394	94.909054	79.165089	739.311023	142.011986	29.814165	633.426185	91.822058	31.106427	625.609964	176.372465	-63.221471	512.954264	-158.884679	-78.073630	486.333032	-40.017607	84.259780	758.154038	-70.220795	34.704344	644.755095	-33.114187	48.674359	640.539237	-109.286649	-156.005664	103.117554	223.539776	-132.932008	119.515989	131.113262	-34.899690	329.476834	191.027870	-90.222019	224.426018	145.119215	-92.152725	226.229831	226.698567	-147.203457	96.510669	-152.915865	-125.605570	120.397106	-61.342032	-43.990727	367.380839	-125.609056	-82.560520	252.233890	-85.545516	-77.979391	254.917704	-166.526850	-226.215815	57.119406	179.970776	4.908941	65.326189	165.645917	-9.158737	58.535521	238.688619	-220.418049	54.810519	-105.095185	8.415198	61.038319	-83.212797	-15.868998	55.465567	-171.501329	4.999096	1394.769803	15.379051	-84.004078	1446.467808	205.153866	-79.655856	1440.343020	-178.401658	-136.404513	108.453888	-107.128948	-144.468836	111.316771	177.326519	-2.135354	906.362601	-55.044129	-16.111400	911.309225	114.424195	-70.647550	499.643648	-99.451143	-52.340196	500.442800	150.023385	
8	0.070000	-146.935530	1012.287314	18.754238	53.729106	983.785837	150.918276	73.149435	976.924155	-83.801783	-54.026630	506.665229	205.112091	-50.651244	494.214300	94.878176	79.181251	739.306289	142.007427	29.824048	633.414042	91.806727	31.103075	625.606541	176.355482	-63.186812	512.944884	-158.900497	-78.069517	486.337830	-40.039081	84.317182	758.131684	-70.216017	34.761479	644.767365	-33.121202	48.724333	640.519765	-109.288972	-156.012192	103.127982	223.528409	-132.928982	119.515308	131.105015	-34.896103	329.480909	191.012451	-90.014042	224.540021	145.082512	-92.152414	226.235985	226.690333	-147.201988	96.513309	-152.919679	-125.606536	120.401636	-61.347880	-43.975774	367.378027	-125.620374	-82.555755	252.231752	-85.554231	-77.965099	254.915582	-166.537812	-226.217258	57.127397	179.963016	4.889194	65.274538	165.660240	-9.154018	58.536521	238.687160	-220.417598	54.814036	-105.095440	8.411531	61.047439	-83.224254	-15.868164	55.465270	-171.501934	5.077651	1394.766555	15.319286	-83.947857	1446.477653	205.076817	-79.555484	1440.340934	-178.468387	-136.404262	108.457472	-107.133780	-144.470587	111.321645	177.316712	-2.063552	906.357931	-55.080264	-16.084324	911.311816	114.379086	-70.628164	499.641357	-99.469789	-52.338937	500.439764	149.995133	
9	0.080000	-146.875273	1012.292297	18.693632	53.752945	983.781964	150.888828	73.233019	976.910459	-83.819193	-54.028703	506.667442	205.087194	-50.644905	494.201741	94.846891	79.197632	739.299637	142.002242	29.835221	633.401409	91.792470	31.100731	625.601356	176.337935	-63.152085	512.935561	-158.916610	-78.065343	486.343312	-40.059224	84.374098	758.109916	-70.211661	34.849840	644.804702	-33.131429	48.772954	640.500712	-109.290774	-156.010829	103.134759	223.518386	-132.925286	119.513888	131.096995	-34.890834	329.483929	190.997894	-89.790327	224.658677	145.043803	-92.151882	226.239740	226.682034	-147.200284	96.516276	-152.923108	-125.607448	120.406258	-61.353910	-43.960929	367.375289	-125.630838	-82.553408	252.230184	-85.565045	-77.949456	254.913340	-166.548720	-226.219693	57.134797	179.955174	4.866819	65.217520	165.676396	-9.149751	58.536938	238.685350	-220.416816	54.817835	-105.095145	8.407467	61.054831	-83.233039	-15.866319	55.464996	-171.502205	5.156043	1394.761155	15.262659	-83.885952	1446.486317	205.003995	-79.451651	1440.334984	-178.534092	-136.403866	108.461267	-107.138509	-144.468058	111.324323	177.307690	-1.991301	906.352252	-55.115669	-16.055241	911.313241	114.335407	-70.608714	499.639436	-99.487917	-52.336804	500.434592	149.967043	
10	0.090000	-146.814487	1012.296892	18.634576	53.779699	983.777271	150.859967	73.316417	976.896060	-83.837156	-54.028515	506.669017	205.062993	-50.638067	494.187107	94.815582	79.214690	739.291236	141.996001	29.847431	633.388208	91.778608	31.100315	625.594608	176.319899	-63.117786	512.926446	-158.932940	-78.061206	486.349235	-40.077966	84.430375	758.088850	-70.207953	34.956883	644.857070	-33.144043	48.820019	640.482133	-109.292429	-156.004260	103.138866	223.509530	-132.921882	119.511315	131.089480	-34.884108	329.486125	190.984038	-89.574285	224.768780	145.006014	-92.150919	226.241526	226.673738	-147.198182	96.519641	-152.926023	-125.607913	120.410904	-61.359995	-43.946396	367.372913	-125.640653	-82.552800	252.229246	-85.577524	-77.932812	254.911134	-166.559497	-226.222644	57.141587	179.947507	4.841740	65.154354	165.695262	-9.146087	58.536942	238.683125	-220.415757	54.821958	-105.094320	8.403342	61.059703	-83.238128	-15.863668	55.464749	-171.502266	5.234424	1394.754052	15.209188	-83.819343	1446.493590	204.935396	-79.343923	1440.326187	-178.598940	-136.403047	108.465272	-107.143009	-144.463071	111.325090	177.299505	-1.919174	906.345718	-55.150531	-16.024039	911.313725	114.293042	-70.589496	499.637841	-99.505453	-52.333291	500.428062	149.939287	
